<svg xmlns="http://www.w3.org/2000/svg" viewBox="0 0 64 64">
  <defs>
    <linearGradient id="g" x1="0" y1="0" x2="1" y2="1">
      <stop offset="0" stop-color="#10b981"/>
      <stop offset="1" stop-color="#0f172a"/>
    </linearGradient>
  </defs>
  <rect width="64" height="64" rx="14" fill="url(#g)"/>
  <path fill="#ffffff" d="M32 14a18 18 0 1 0 0 36 18 18 0 0 0 0-36Zm0 4a14 14 0 1 1 0 28 14 14 0 0 1 0-28Z"/>
  <path fill="#ffffff" d="M33 20a2 2 0 0 0-2 2v11.2l8.2 5.1a2 2 0 1 0 2.1-3.4L35 31.9V22a2 2 0 0 0-2-2Z"/>
</svg>
